<?xml version="1.0" standalone="no"?>
<!DOCTYPE svg PUBLIC "-//W3C//DTD SVG 20010904//EN"
 "http://www.w3.org/TR/2001/REC-SVG-20010904/DTD/svg10.dtd">
<svg version="1.0" xmlns="http://www.w3.org/2000/svg"
 width="6901.000000pt" height="5000.000000pt" viewBox="0 0 6901.000000 5000.000000"
 preserveAspectRatio="xMidYMid meet">

<g transform="translate(0.000000,5000.000000) scale(0.100000,-0.100000)"
fill="#000000" stroke="none">
<path d="M18600 25402 c0 -9602 3 -18438 7 -19635 l6 -2177 519 0 518 0 0
19635 0 19635 -525 0 -525 0 0 -17458z"/>
<path d="M28949 35809 c-134 -19 -346 -86 -502 -158 -226 -104 -461 -268 -658
-458 -53 -51 -60 -55 -145 -72 -330 -68 -622 -300 -896 -711 -144 -216 -227
-404 -274 -620 -29 -131 -27 -478 3 -613 75 -332 241 -636 478 -872 33 -33
105 -97 160 -141 210 -170 348 -333 440 -519 66 -134 81 -179 109 -318 l22
-108 89 56 c157 99 245 167 368 284 129 125 241 266 299 377 82 156 126 349
113 496 l-7 78 -30 -21 c-21 -16 -45 -22 -82 -22 -119 0 -165 63 -272 373 -23
69 -48 156 -55 194 -29 169 31 292 155 315 79 15 143 -8 218 -77 15 -14 31
-22 35 -18 5 4 8 206 8 449 l0 442 29 106 28 106 82 51 c100 63 213 115 325
150 80 25 99 26 281 27 222 0 230 2 274 77 106 185 94 545 -28 803 -97 205
-228 316 -406 344 -72 12 -81 12 -161 0z"/>
<path d="M53130 34512 c0 -38 39 -147 73 -204 l35 -56 -50 -17 c-197 -64 -317
-276 -306 -538 6 -139 31 -202 112 -283 78 -77 151 -105 283 -106 100 -1 165
13 320 72 114 43 155 48 206 26 44 -18 95 -78 103 -120 3 -20 0 -83 -6 -140
-13 -109 -9 -234 10 -298 20 -68 70 -130 130 -160 91 -46 257 -69 494 -69 239
1 263 -7 251 -79 -4 -19 -21 -83 -40 -141 -59 -187 -56 -270 9 -310 50 -30 81
-25 133 24 l46 43 2 195 c3 295 28 384 147 514 61 67 125 105 174 105 49 0
106 -40 141 -99 87 -146 97 -476 22 -768 -32 -127 -64 -196 -114 -252 -44 -49
-81 -64 -144 -59 l-50 3 -11 -65 c-17 -99 -67 -281 -101 -368 -126 -319 -374
-564 -670 -661 -36 -11 -36 -13 -43 -76 -11 -107 -7 -1196 5 -1321 12 -139 19
-159 54 -168 91 -23 488 86 865 237 412 164 717 350 760 463 14 35 13 324 -1
500 -7 80 -10 147 -7 149 3 3 43 -4 89 -14 303 -72 491 -1 599 224 114 239
150 607 83 860 l-16 61 40 52 c185 245 290 573 253 791 -23 137 -109 356 -233
596 l-73 140 -87 7 c-295 22 -1196 262 -1822 485 -672 240 -1050 430 -1637
826 -28 19 -28 19 -28 -1z"/>
<path d="M46657 30746 c-125 -46 -213 -173 -257 -371 -77 -347 3 -841 204
-1252 l72 -148 -18 -41 c-9 -23 -20 -66 -24 -98 l-7 -56 243 0 242 0 -4 28 -4
27 161 1 c181 0 290 16 442 65 287 92 512 270 595 471 31 75 31 213 0 281 -30
66 -110 148 -179 183 -52 25 -68 28 -148 28 -136 -2 -241 -46 -417 -175 -110
-82 -339 -314 -463 -471 -55 -69 -101 -125 -102 -124 -1 1 11 49 27 107 191
690 185 1200 -20 1431 -83 95 -248 149 -343 114z m153 -167 c57 -26 115 -81
145 -140 40 -78 56 -156 62 -309 9 -222 -25 -465 -114 -815 -55 -218 -65 -245
-93 -245 -17 0 -33 25 -84 130 -149 305 -229 666 -212 955 13 228 65 367 161
426 39 24 79 24 135 -2z m1231 -881 c49 -14 111 -67 133 -112 73 -153 -127
-384 -439 -505 -157 -61 -283 -85 -457 -86 -80 0 -150 3 -154 7 -21 22 355
429 501 543 174 136 309 186 416 153z"/>
<path d="M29561 29991 c173 -162 404 -433 522 -613 92 -141 274 -479 414 -767
73 -152 141 -292 151 -311 12 -25 39 -47 99 -81 l81 -47 50 111 c89 200 141
340 166 447 59 254 160 820 148 832 -26 26 -655 237 -997 333 -256 73 -671
175 -708 175 -5 0 28 -35 74 -79z"/>
<path d="M44429 28753 c-270 -698 -432 -1511 -499 -2513 -64 -960 -17 -2242
124 -3365 l21 -170 69 -3 c38 -2 72 1 76 5 4 4 -6 112 -21 238 -110 924 -159
1870 -139 2662 12 448 22 617 61 1008 79 790 249 1549 463 2058 l45 107 -95 0
c-94 0 -95 0 -105 -27z"/>
<path d="M47933 28773 c3 -5 23 -38 46 -76 106 -174 216 -422 301 -677 324
-970 385 -2332 179 -3960 -49 -390 -139 -934 -205 -1237 -13 -62 -24 -115 -24
-118 0 -3 -575 -6 -1277 -7 l-1278 -3 260 -131 c380 -192 579 -276 927 -389
678 -220 1296 -314 2673 -406 265 -17 956 -23 1180 -10 471 28 814 87 1147
197 l136 46 6 46 c14 108 186 2297 186 2359 l0 38 -123 43 c-135 48 -327 138
-427 200 l-65 40 -28 -77 c-65 -180 -206 -410 -374 -611 -98 -118 -325 -347
-426 -430 l-67 -55 0 -136 c0 -235 -51 -371 -195 -515 -87 -88 -167 -138 -280
-176 l-70 -23 -872 -3 c-480 -1 -873 0 -873 4 0 3 13 70 29 148 266 1278 374
2709 286 3769 -68 811 -235 1485 -501 2022 l-67 135 -104 0 c-57 0 -102 -3
-100 -7z"/>
<path d="M58425 24344 c-133 -5 -364 -23 -495 -40 -105 -13 -341 -53 -348 -59
-1 -1 8 -74 22 -161 130 -827 205 -1651 193 -2109 -7 -225 -18 -315 -65 -495
-42 -159 -56 -341 -42 -547 24 -362 83 -664 276 -1433 160 -634 220 -915 249
-1180 36 -329 6 -578 -89 -730 -141 -226 -197 -351 -243 -546 -28 -120 -25
-407 5 -526 28 -115 72 -227 121 -310 l40 -68 -958 0 -957 0 -44 23 c-52 26
-78 59 -90 113 -5 21 -10 227 -10 457 l0 417 -24 0 c-14 0 -38 11 -53 24 l-28
24 0 742 0 742 28 24 c15 13 39 24 53 24 l24 0 0 248 0 247 -407 0 c-495 0
-759 21 -1138 90 -686 125 -1507 450 -1962 777 -46 33 -87 57 -92 54 -25 -16
-171 -290 -256 -481 -531 -1192 -881 -2995 -1019 -5250 -37 -595 -46 -871 -52
-1515 -7 -619 0 -783 41 -1107 164 -1279 724 -2893 1635 -4714 l89 -177 -24
-59 c-44 -109 -60 -221 -59 -418 1 -145 5 -200 23 -285 43 -204 107 -312 205
-349 116 -43 389 -82 726 -102 157 -10 635 -6 715 5 17 3 71 7 120 11 206 14
491 74 545 113 70 52 117 148 153 312 29 131 31 444 4 568 -34 159 -86 258
-150 287 -17 9 -72 21 -122 28 l-89 12 -78 335 c-418 1801 -772 3290 -975
4100 l-167 665 1 170 c0 183 10 287 49 545 118 772 445 1998 959 3600 126 390
444 1341 471 1405 12 30 19 35 47 35 46 0 119 -49 141 -93 42 -89 103 -430
141 -787 3 -30 10 -89 15 -130 37 -299 112 -1178 170 -1985 50 -714 45 -640
80 -1195 16 -261 32 -511 35 -555 14 -213 68 -1155 100 -1745 2 -52 9 -178 15
-280 5 -102 12 -234 15 -295 3 -60 8 -144 10 -185 4 -62 40 -771 60 -1185 3
-60 8 -148 10 -195 3 -47 16 -323 30 -615 13 -291 27 -579 30 -640 8 -159 65
-1417 65 -1437 0 -12 -8 -18 -22 -18 -54 0 -119 -64 -157 -153 -83 -192 -85
-597 -5 -836 28 -83 73 -161 111 -191 56 -44 256 -87 503 -109 69 -6 172 -16
230 -21 147 -13 745 -4 905 14 258 29 481 78 537 118 68 48 125 184 154 371
23 141 15 428 -15 544 -27 107 -71 193 -117 232 l-38 30 32 468 c207 3033 334
5866 368 8196 l7 469 21 -7 c154 -49 333 -60 474 -31 190 41 374 140 496 266
80 84 117 150 123 219 3 32 -21 168 -82 456 -222 1058 -208 985 -202 1060 7
87 42 220 153 585 332 1093 457 1665 505 2317 15 210 7 664 -15 831 -51 387
-133 649 -307 989 -163 319 -209 533 -209 976 0 258 15 475 63 882 2 17 -9 22
-78 37 -287 63 -774 103 -1110 92z"/>
<path d="M31240 20059 c-301 -105 -847 -198 -1390 -239 -809 -60 -1874 -49
-2905 30 -137 10 -251 17 -253 15 -2 -2 -248 -1524 -547 -3383 l-543 -3379
-352 -649 c-1871 -3449 -3070 -5665 -3070 -5676 0 -18 153 -220 257 -340 176
-202 396 -389 565 -481 92 -51 237 -103 248 -90 4 4 378 496 832 1093 454 597
1544 2030 2424 3185 l1598 2100 189 570 c104 314 263 796 355 1073 91 276 169
499 173 495 3 -5 152 -384 329 -843 l323 -834 -827 -3788 c-455 -2084 -828
-3801 -829 -3816 -2 -26 0 -27 63 -35 36 -4 375 -47 754 -96 l689 -87 12 31
c22 51 495 1355 742 2045 1004 2803 1630 4667 1826 5440 l32 125 -2 255 c-3
519 -92 1766 -278 3920 -112 1284 -301 3340 -311 3373 -7 21 -1 22 -104 -14z"/>
<path d="M21790 6461 c-263 -88 -410 -150 -457 -194 -17 -15 -23 -32 -23 -63
0 -93 153 -546 339 -1003 41 -100 58 -163 91 -330 68 -345 252 -1236 257
-1243 2 -5 348 -8 769 -8 821 0 790 -2 848 49 50 44 70 135 41 190 -45 88
-229 193 -495 282 -143 48 -159 56 -201 99 -181 184 -502 921 -874 2005 -56
163 -98 271 -106 272 -8 2 -93 -24 -189 -56z"/>
<path d="M53235 5204 c-236 -50 -557 -216 -1180 -614 -309 -198 -367 -226
-771 -371 -110 -39 -206 -75 -214 -79 -21 -12 -13 -14 178 -50 430 -79 806
-126 1317 -162 241 -17 1121 -17 1360 0 411 29 786 73 1123 132 96 16 178 30
183 30 24 0 8 74 -84 385 -35 121 -78 271 -93 333 -29 112 -30 114 -70 138
-48 28 -71 29 -219 9 -65 -9 -191 -15 -307 -15 -311 0 -497 32 -723 127 -60
25 -147 61 -192 80 -114 47 -241 70 -308 57z"/>
<path d="M57882 5015 c-19 -8 -61 -38 -95 -66 -33 -28 -83 -62 -111 -77 -46
-24 -62 -26 -151 -26 -79 1 -124 7 -215 31 -445 120 -498 129 -676 113 -90 -8
-123 -15 -135 -28 -28 -28 -251 -352 -335 -484 -96 -151 -158 -267 -184 -342
-17 -51 -55 -265 -48 -271 2 -1 50 -25 108 -53 397 -191 780 -279 1055 -243
247 33 595 138 860 261 49 22 90 42 91 43 2 1 11 70 20 152 25 211 26 697 2
805 -39 175 -91 226 -186 185z"/>
<path d="M27675 4387 c-20 -59 -235 -756 -235 -761 0 -3 786 -5 1747 -4 l1747
3 10 34 c8 28 6 41 -13 76 -61 115 -279 214 -880 401 -168 53 -427 134 -575
180 l-268 85 -67 -20 c-108 -32 -407 -108 -541 -137 -157 -34 -274 -35 -417
-5 -100 21 -345 97 -451 140 -39 16 -54 18 -57 8z"/>
</g>
</svg>
