<?xml version="1.0" standalone="no"?>
<!DOCTYPE svg PUBLIC "-//W3C//DTD SVG 20010904//EN"
 "http://www.w3.org/TR/2001/REC-SVG-20010904/DTD/svg10.dtd">
<svg version="1.0" xmlns="http://www.w3.org/2000/svg"
 width="6901.000000pt" height="5000.000000pt" viewBox="0 0 6901.000000 5000.000000"
 preserveAspectRatio="xMidYMid meet">

<g transform="translate(0.000000,5000.000000) scale(0.100000,-0.100000)"
fill="#000000" stroke="none">
<path d="M18600 25408 c0 -9599 3 -18435 7 -19635 l6 -2183 519 0 518 0 0
17998 c0 9899 -3 18735 -7 19635 l-6 1637 -519 0 -518 0 0 -17452z"/>
<path d="M28875 35793 c-115 -24 -325 -97 -446 -155 -224 -107 -424 -244 -595
-410 -72 -70 -108 -98 -126 -98 -38 0 -176 -39 -255 -72 -97 -40 -228 -123
-329 -209 -251 -213 -523 -625 -613 -926 -111 -376 -72 -775 114 -1148 122
-245 275 -435 484 -603 333 -266 525 -567 567 -889 4 -31 12 -53 19 -53 18 0
240 149 325 217 136 111 296 283 372 403 117 184 179 403 163 582 l-7 78 -30
-21 c-59 -42 -169 -23 -217 37 -49 62 -159 348 -187 486 -37 185 20 312 150
337 79 15 143 -8 218 -77 15 -14 31 -22 35 -18 5 4 8 209 8 454 l0 447 29 101
29 101 56 37 c85 56 246 131 346 163 84 25 103 27 275 29 102 0 190 2 197 2
24 4 75 56 97 101 13 25 32 81 41 125 24 106 17 345 -13 458 -94 354 -283 539
-547 537 -49 0 -121 -7 -160 -16z"/>
<path d="M53130 34523 c0 -33 38 -140 70 -201 27 -48 35 -74 27 -76 -204 -58
-326 -227 -343 -473 -14 -194 53 -345 183 -416 64 -34 124 -47 225 -48 94 0
154 14 306 71 151 57 203 52 270 -24 40 -46 47 -87 33 -195 -37 -288 25 -448
193 -496 107 -31 250 -46 443 -46 286 1 279 7 208 -224 -59 -190 -57 -264 9
-305 56 -34 104 -21 155 42 23 28 24 36 26 226 4 289 29 378 145 505 92 101
163 127 238 88 48 -25 66 -45 96 -111 42 -92 59 -222 53 -400 -12 -296 -88
-540 -195 -623 -33 -25 -44 -28 -99 -25 l-62 3 -6 -40 c-26 -163 -103 -405
-168 -528 -131 -246 -360 -445 -608 -526 l-36 -12 -7 -252 c-10 -353 -7 -1020
4 -1141 17 -165 25 -174 152 -156 163 23 583 150 763 230 11 5 79 35 150 65
306 132 533 274 596 374 l29 45 0 175 c-1 97 -7 239 -14 316 -8 77 -13 142
-11 144 2 2 54 -7 115 -19 156 -31 289 -26 378 14 154 70 247 246 297 560 28
174 16 434 -24 538 -9 25 -5 35 49 110 69 95 169 292 199 390 61 201 56 387
-15 573 -45 121 -132 313 -192 425 -60 115 -61 115 -99 117 -263 12 -1067 217
-1708 435 -689 234 -1153 454 -1640 777 -88 58 -166 110 -172 114 -7 4 -13 4
-13 0z"/>
<path d="M46668 30746 c-85 -23 -149 -83 -202 -191 -166 -334 -104 -938 149
-1450 l65 -132 -19 -44 c-10 -24 -22 -68 -26 -96 l-7 -53 236 0 236 0 0 29 0
29 153 0 c230 0 418 38 612 127 239 109 421 303 455 485 36 190 -93 375 -285
409 -243 44 -580 -191 -958 -666 -45 -56 -83 -101 -84 -99 -2 1 9 45 23 97
210 780 182 1314 -78 1492 -92 63 -189 86 -270 63z m147 -170 c204 -97 255
-412 155 -966 -23 -127 -114 -490 -130 -520 -6 -11 -20 -20 -31 -20 -16 0 -33
27 -83 130 -148 303 -229 670 -212 955 13 230 65 367 161 426 40 25 80 24 140
-5z m1226 -878 c49 -14 111 -67 133 -112 67 -141 -101 -355 -380 -482 -164
-74 -394 -120 -567 -112 -53 3 -100 8 -104 11 -10 11 144 194 287 341 280 288
480 400 631 354z"/>
<path d="M29532 30016 c59 -57 75 -68 64 -40 -3 9 -2 12 4 9 6 -4 9 -12 8 -18
-5 -19 54 -89 69 -83 8 3 12 2 9 -3 -3 -4 27 -44 67 -87 97 -108 116 -126 126
-120 5 3 17 -4 27 -17 19 -22 19 -22 -2 -4 -11 9 -24 14 -27 11 -7 -7 89 -127
97 -122 6 5 46 -34 46 -45 0 -5 -9 1 -20 14 -33 40 -22 12 14 -35 19 -25 37
-43 40 -40 3 2 4 1 1 -3 -3 -3 5 -20 18 -37 12 -17 29 -43 36 -58 8 -15 18
-25 23 -22 4 3 8 -2 8 -11 0 -24 100 -196 111 -190 5 3 6 -2 2 -11 -4 -12 -3
-15 5 -10 8 5 10 2 6 -9 -4 -8 5 -32 18 -53 14 -20 33 -54 43 -74 9 -21 21
-35 26 -32 5 3 6 -3 2 -12 -5 -13 -3 -15 7 -9 9 5 11 4 6 -3 -8 -13 59 -150
84 -170 8 -8 10 -11 3 -8 -6 3 7 -32 30 -78 23 -47 45 -82 51 -79 5 3 6 1 2
-5 -8 -14 68 -175 79 -165 4 5 5 3 2 -3 -7 -12 11 -58 41 -107 24 -38 168
-121 176 -100 3 8 3 20 -1 26 -3 7 -2 9 2 4 11 -10 77 132 70 151 -2 7 -1 11
3 8 11 -6 83 164 110 259 44 149 119 534 177 898 5 27 -3 35 -37 41 -7 1 -19
5 -25 9 -7 5 -13 5 -13 0 0 -4 -4 -3 -8 3 -9 13 -143 67 -150 60 -3 -3 -10 -2
-16 3 -18 15 -238 91 -246 86 -5 -3 -10 -1 -12 3 -4 12 -198 73 -240 75 -10 1
-18 4 -18 8 0 11 -81 30 -103 24 -14 -4 -18 -3 -9 3 9 6 1 12 -26 20 -46 14
-62 15 -43 3 9 -6 5 -8 -14 -8 -18 0 -23 2 -14 8 10 6 7 10 -11 17 -53 20 -69
22 -75 12 -3 -5 -12 -10 -18 -10 -7 0 -6 4 3 10 11 7 8 11 -15 20 -17 6 -40 9
-52 7 -14 -2 -20 0 -16 6 4 6 0 8 -10 4 -10 -4 -17 -2 -17 4 0 6 -9 9 -20 6
-11 -3 -23 -1 -26 5 -3 5 -15 8 -25 5 -11 -3 -17 -1 -14 3 7 11 -133 43 -147
34 -7 -4 -8 -2 -4 4 4 8 0 12 -12 12 -11 0 -56 9 -102 21 -45 11 -89 18 -97
15 -8 -3 -11 -2 -8 4 3 5 -3 9 -12 9 -10 -1 -29 3 -43 7 -20 5 -13 -5 32 -50z
m332 -60 c-6 -16 -31 -17 -31 0 0 7 7 10 15 6 11 -4 13 -1 7 8 -5 8 -4 11 3 6
6 -4 9 -12 6 -20z m891 -257 c-4 -5 -12 -9 -18 -8 -9 0 -8 2 1 6 6 2 9 10 6
15 -4 7 -2 8 5 4 6 -4 9 -12 6 -17z m250 -89 c-3 -5 -13 -6 -21 -3 -12 4 -13
8 -3 14 15 9 32 2 24 -11z m95 -30 c0 -5 -2 -10 -4 -10 -3 0 -8 5 -11 10 -3 6
-1 10 4 10 6 0 11 -4 11 -10z m-1032 -85 c-3 -3 -9 2 -12 12 -6 14 -5 15 5 6
7 -7 10 -15 7 -18z"/>
<path d="M44429 28753 c-309 -798 -472 -1718 -519 -2933 -33 -867 25 -2005
156 -3057 l7 -53 77 0 76 0 -32 284 c-97 843 -136 1494 -136 2246 0 569 16
912 62 1370 84 815 235 1496 454 2038 25 63 46 118 46 123 0 5 -41 9 -90 9
-89 0 -91 0 -101 -27z"/>
<path d="M47940 28771 c0 -5 18 -38 39 -73 237 -390 425 -978 515 -1608 62
-432 81 -730 80 -1280 0 -735 -53 -1394 -175 -2180 -53 -343 -159 -913 -172
-927 -2 -1 -574 -3 -1270 -3 -697 0 -1267 -2 -1267 -4 0 -7 154 -89 168 -89 6
0 12 -4 12 -8 0 -7 24 -18 45 -20 6 0 17 -6 25 -14 18 -16 140 -77 140 -70 0
2 16 -7 36 -20 20 -14 40 -25 44 -25 4 0 25 -8 46 -17 22 -9 42 -17 46 -17 4
-1 13 -7 20 -13 6 -7 17 -13 23 -13 6 0 28 -9 49 -20 22 -10 43 -17 47 -14 5
3 9 1 9 -4 0 -9 79 -39 93 -34 4 1 7 -3 7 -9 0 -5 4 -8 9 -5 5 4 11 2 13 -2 6
-16 352 -134 362 -124 3 3 6 1 6 -5 0 -6 12 -13 28 -16 15 -3 92 -24 171 -46
80 -22 147 -39 149 -36 3 3 10 1 16 -4 23 -18 631 -147 662 -140 5 1 16 -1 24
-4 15 -6 264 -41 375 -52 33 -3 67 -8 75 -10 25 -7 726 -64 1045 -85 559 -37
1216 -37 1530 1 44 5 105 12 135 15 72 6 312 45 324 52 5 3 25 6 45 8 70 7
383 91 389 106 2 4 8 6 12 3 12 -7 91 24 114 45 20 20 21 22 56 470 12 146 32
393 45 550 13 157 43 536 66 843 49 642 58 563 -66 605 -38 13 -74 27 -80 32
-5 4 -28 13 -50 20 -59 19 -192 84 -288 140 -47 28 -87 50 -90 50 -3 0 -15
-30 -28 -67 -20 -62 -86 -211 -99 -223 -3 -3 -16 -25 -29 -50 -14 -25 -29 -48
-34 -51 -5 -4 -10 -18 -10 -32 -1 -14 -6 -25 -11 -24 -5 1 -24 -18 -43 -43
-133 -174 -184 -238 -226 -281 -26 -28 -45 -54 -42 -60 4 -5 2 -8 -3 -7 -6 2
-45 -33 -89 -78 -43 -45 -91 -89 -106 -99 -15 -10 -26 -24 -23 -31 3 -7 0 -11
-7 -8 -7 2 -42 -24 -79 -59 l-68 -63 0 -135 c0 -88 -5 -155 -15 -194 -21 -81
-75 -192 -126 -260 -43 -58 -170 -161 -227 -184 -17 -7 -30 -16 -28 -20 2 -3
-6 -7 -17 -7 -12 -1 -47 -10 -77 -20 -51 -17 -115 -18 -927 -21 -481 -2 -873
0 -873 5 0 5 9 51 20 103 65 302 166 910 205 1232 3 20 7 54 10 75 19 146 54
490 70 687 34 423 48 941 35 1317 -5 169 -12 330 -15 360 -3 29 -10 112 -15
183 -60 742 -228 1426 -478 1945 -28 58 -60 120 -71 138 l-21 32 -95 0 c-52 0
-95 -4 -95 -9z"/>
<path d="M58430 24343 c-286 -8 -810 -71 -842 -102 -4 -3 9 -107 28 -231 110
-711 184 -1483 184 -1936 0 -271 -13 -381 -74 -619 -69 -270 -52 -625 55
-1160 39 -195 64 -300 249 -1050 159 -644 194 -852 194 -1170 0 -198 -2 -228
-23 -300 -12 -44 -24 -84 -25 -90 -4 -19 -47 -95 -90 -163 -88 -135 -152 -281
-192 -437 -31 -121 -43 -339 -25 -450 7 -38 13 -79 15 -90 12 -83 76 -247 128
-333 21 -34 38 -65 38 -67 0 -3 -431 -5 -958 -5 l-958 0 -44 23 c-54 27 -80
61 -91 118 -4 24 -8 230 -9 457 l0 412 -24 0 c-14 0 -38 11 -53 24 l-28 24 0
742 0 742 28 24 c15 13 41 24 56 24 l28 0 -1 246 -1 247 -430 2 c-427 2 -527
7 -825 45 -794 99 -1724 438 -2259 823 -98 70 -81 78 -168 -77 -283 -502 -549
-1271 -742 -2141 -318 -1436 -502 -3301 -505 -5110 -1 -592 3 -672 50 -1025
164 -1227 683 -2739 1531 -4462 l186 -377 -22 -50 c-121 -282 -69 -852 92
-1014 55 -54 213 -92 507 -122 80 -8 165 -18 190 -22 25 -3 203 -6 395 -6 344
0 515 9 724 39 104 15 318 66 352 84 66 36 135 181 166 354 20 110 23 387 5
493 -18 105 -58 224 -91 270 -37 51 -76 69 -180 81 -46 6 -87 14 -92 19 -4 4
-39 143 -78 308 -347 1487 -522 2232 -666 2835 -31 129 -76 321 -101 425 -60
252 -305 1239 -344 1385 -52 193 -52 430 1 790 106 727 409 1895 875 3370 191
605 566 1725 583 1743 14 14 97 -14 134 -44 45 -37 68 -97 101 -265 162 -822
371 -3761 601 -8469 43 -893 115 -2458 115 -2518 0 -43 -1 -45 -35 -51 -77
-15 -137 -103 -177 -263 -20 -78 -23 -113 -22 -303 0 -182 3 -229 21 -305 39
-167 96 -280 159 -317 183 -106 1186 -164 1683 -97 178 24 399 73 453 100 110
56 187 306 188 614 0 267 -62 485 -158 554 -26 18 -30 27 -26 54 6 42 86 1265
124 1897 153 2531 239 4618 270 6550 6 354 12 646 15 648 2 2 36 -6 77 -18
130 -38 343 -37 478 1 76 22 181 68 245 108 22 14 45 26 50 26 6 1 9 7 7 14
-1 7 2 10 7 7 4 -3 26 7 47 23 43 32 129 121 117 121 -5 0 0 5 10 11 20 12 63
102 72 153 7 35 3 60 -45 286 -17 80 -34 159 -36 175 -9 48 -123 596 -135 645
-6 25 -13 59 -16 75 -2 17 -15 81 -29 143 -43 204 -41 218 161 882 46 151 104
349 130 440 25 91 54 194 64 230 49 168 153 616 166 710 4 25 15 90 25 145 24
130 37 216 72 505 29 240 32 788 5 980 -10 69 -20 143 -23 165 -29 223 -187
727 -219 697 -5 -4 -5 -1 -1 6 4 7 -7 41 -26 79 -77 154 -91 178 -100 184 -5
3 -9 8 -9 10 2 17 -13 47 -22 42 -5 -3 -7 -1 -4 4 4 6 -9 60 -28 119 -43 136
-50 170 -69 319 -35 272 -30 570 15 990 12 105 22 213 24 242 l4 51 -142 26
c-339 62 -697 89 -1037 79z"/>
<path d="M31255 20064 c-609 -215 -1791 -317 -3170 -274 -465 15 -1178 55
-1346 76 l-46 5 -11 -68 c-6 -37 -192 -1191 -412 -2563 -220 -1372 -418 -2605
-440 -2740 -56 -347 -196 -1220 -211 -1315 -12 -77 -23 -101 -332 -670 -175
-324 -334 -615 -352 -645 -18 -30 -120 -217 -227 -415 -321 -592 -1035 -1912
-1103 -2035 -34 -63 -181 -333 -325 -600 -145 -267 -333 -615 -420 -775 -213
-392 -344 -635 -393 -725 -42 -80 -113 -210 -221 -406 -36 -67 -66 -127 -66
-135 0 -8 40 -67 88 -131 292 -390 622 -671 896 -763 43 -14 80 -25 81 -23 2
2 142 185 312 408 169 223 426 561 570 750 145 190 382 503 528 695 146 193
982 1291 1857 2442 l1591 2092 33 98 c86 259 570 1727 615 1868 28 88 55 164
59 169 5 4 13 0 18 -10 28 -54 645 -1662 644 -1679 -1 -11 -375 -1728 -830
-3815 l-829 -3795 56 -12 c98 -22 1448 -190 1455 -181 5 5 493 1353 703 1938
1011 2821 1630 4654 1846 5470 l52 195 -1 315 c0 173 -8 441 -18 595 -73 1203
-243 3235 -501 6015 -59 636 -63 670 -73 669 -4 0 -38 -12 -77 -25z"/>
<path d="M21826 6475 c-240 -81 -306 -107 -299 -118 3 -6 1 -7 -6 -3 -13 9
-155 -57 -188 -87 -17 -15 -23 -32 -23 -60 0 -55 50 -238 63 -230 6 3 7 1 3
-6 -9 -13 11 -76 101 -321 99 -272 205 -540 212 -536 3 2 6 -6 7 -17 1 -20
112 -568 246 -1219 l53 -258 768 0 c747 0 769 1 807 20 72 37 114 122 96 195
-8 33 -101 129 -116 120 -6 -3 -9 -2 -8 4 2 6 -7 17 -18 24 -54 31 -164 86
-164 81 0 -2 -10 2 -22 9 -13 8 -48 22 -78 32 -30 10 -68 24 -85 31 -16 7 -58
21 -92 32 -33 11 -72 26 -85 33 -12 7 -27 12 -33 10 -5 -1 -7 1 -3 4 4 4 -5
23 -19 41 -22 29 -28 32 -42 22 -14 -11 -14 -11 -4 3 11 13 6 27 -31 83 -24
37 -46 63 -48 59 -3 -4 -4 -3 -2 3 4 18 -121 255 -131 247 -4 -4 -5 -3 -2 3
10 17 -21 86 -35 78 -7 -4 -8 -3 -4 5 11 17 -85 235 -97 219 -5 -9 -6 -6 -2 8
5 21 -53 172 -78 203 -7 8 -11 16 -9 18 8 11 0 33 -10 27 -6 -4 -8 -3 -4 4 3
6 -3 34 -15 64 -63 158 -237 633 -325 885 -15 45 -32 79 -36 77 -4 -3 -6 1 -3
8 3 7 -12 65 -33 128 -31 91 -43 115 -58 117 -10 1 -77 -18 -148 -42z m1194
-2300 c0 -2 -6 -5 -13 -8 -8 -3 -14 1 -14 8 0 7 6 11 14 8 7 -3 13 -6 13 -8z
m604 -441 c3 -8 2 -12 -4 -9 -6 3 -10 10 -10 16 0 14 7 11 14 -7z"/>
<path d="M53155 5182 c-239 -73 -576 -258 -1195 -657 -194 -125 -309 -177
-683 -311 -99 -35 -186 -68 -195 -73 -20 -11 -12 -14 133 -40 323 -60 569 -96
584 -86 6 3 11 2 11 -3 0 -14 469 -61 840 -83 254 -16 952 -15 1200 0 418 26
854 75 1205 136 176 30 185 33 185 48 0 23 -48 204 -102 387 -31 102 -68 235
-83 295 -30 118 -55 157 -112 171 -15 4 -93 -1 -173 -11 -118 -14 -190 -17
-385 -12 -324 7 -452 35 -725 154 -193 85 -223 94 -340 99 -83 3 -118 0 -165
-14z"/>
<path d="M57876 5013 c-11 -3 -52 -32 -90 -65 -106 -89 -141 -102 -261 -102
-82 1 -124 7 -235 37 -440 117 -493 125 -669 103 -62 -8 -116 -18 -120 -23 -3
-5 -45 -63 -92 -128 -207 -289 -382 -574 -420 -680 -21 -59 -49 -209 -49 -260
0 -31 4 -33 118 -88 148 -70 267 -117 304 -120 15 -1 28 -5 28 -8 0 -4 21 -14
48 -22 353 -116 654 -116 1030 -3 42 13 103 31 135 40 31 9 57 22 57 27 0 6 4
8 9 4 9 -5 97 25 133 45 10 6 23 10 29 10 6 0 45 16 87 35 140 65 125 47 139
165 56 501 35 905 -53 1009 -22 26 -32 31 -67 30 -23 -1 -51 -4 -61 -6z"/>
<path d="M27665 4342 c-9 -31 -30 -97 -46 -145 -16 -49 -27 -93 -24 -98 4 -5
2 -9 -2 -9 -11 0 -45 -109 -38 -121 4 -5 1 -9 -5 -9 -7 0 -10 -7 -6 -15 3 -8
2 -15 -2 -15 -4 0 -16 -28 -26 -63 -11 -34 -22 -68 -24 -76 -4 -9 -1 -12 6 -7
7 4 12 2 12 -3 0 -6 -6 -11 -13 -11 -12 0 -30 -46 -47 -117 l-8 -33 1744 0
1744 0 10 26 c14 35 13 57 -2 48 -7 -4 -8 -3 -4 5 9 15 -3 53 -15 46 -5 -3 -6
1 -3 9 6 17 -112 110 -127 100 -5 -3 -9 0 -9 6 0 7 -6 10 -12 7 -7 -2 -12 -10
-10 -16 1 -7 -2 -10 -8 -6 -8 5 -8 11 1 21 9 11 5 16 -17 25 -16 6 -39 16 -51
21 -11 6 -27 7 -34 3 -8 -5 -10 -4 -5 3 8 14 -40 36 -61 28 -8 -3 -11 -1 -8 4
5 9 -1 12 -21 9 -4 0 -10 4 -13 9 -10 15 -109 44 -122 36 -8 -4 -9 -3 -5 4 7
12 -210 86 -225 77 -4 -3 -9 0 -11 7 -2 6 -18 11 -36 11 -17 0 -29 4 -26 8 4
7 -21 14 -76 22 -8 2 -21 6 -27 10 -7 5 -13 5 -13 0 0 -4 -4 -3 -8 3 -8 14
-142 55 -154 48 -4 -3 -8 -1 -8 4 0 13 -117 45 -132 36 -7 -4 -8 -3 -4 4 6 11
-19 18 -46 13 -5 0 -8 4 -8 9 0 6 -6 10 -12 9 -7 -1 -26 3 -41 9 -16 7 -32 10
-37 7 -5 -3 -10 -1 -12 4 -1 4 -13 11 -25 15 -19 6 -22 4 -18 -11 3 -10 1 -9
-6 5 -7 12 -21 23 -33 24 -28 2 -38 4 -56 11 -67 28 -125 45 -132 41 -4 -3 -8
-1 -8 4 0 6 -11 13 -25 16 -32 8 -227 -43 -218 -57 3 -6 1 -7 -5 -3 -11 6
-175 -28 -196 -42 -6 -3 -19 -7 -30 -8 -12 -1 -86 -17 -166 -34 -221 -50 -332
-45 -585 27 -49 14 -97 26 -105 27 -8 0 -17 4 -20 7 -3 3 -32 15 -65 26 -33
11 -83 30 -112 41 l-51 21 -17 -57z m1615 -6 c0 -3 -4 -8 -10 -11 -5 -3 -10
-1 -10 4 0 6 5 11 10 11 6 0 10 -2 10 -4z m700 -196 c0 -5 -2 -10 -4 -10 -3 0
-8 5 -11 10 -3 6 -1 10 4 10 6 0 11 -4 11 -10z m104 -48 c3 -5 -1 -9 -9 -9 -8
0 -12 4 -9 9 3 4 7 8 9 8 2 0 6 -4 9 -8z m227 -59 c13 -15 12 -15 -8 -4 -24
12 -29 21 -14 21 5 0 15 -7 22 -17z m-2720 -30 c13 -16 12 -17 -3 -4 -10 7
-18 15 -18 17 0 8 8 3 21 -13z m0 -30 c13 -16 12 -17 -3 -4 -10 7 -18 15 -18
17 0 8 8 3 21 -13z m2949 -34 c0 -5 6 -7 13 -3 6 4 8 3 4 -1 -13 -15 -34 -14
-34 1 0 8 4 14 9 14 4 0 8 -5 8 -11z m200 -65 c0 -8 -19 -13 -24 -6 -3 5 1 9
9 9 8 0 15 -2 15 -3z m105 -73 c3 -5 2 -12 -3 -15 -5 -3 -9 1 -9 9 0 17 3 19
12 6z m80 -140 c3 -5 2 -12 -3 -15 -5 -3 -9 1 -9 9 0 17 3 19 12 6z"/>
</g>
</svg>
