<?xml version="1.0" standalone="no"?>
<!DOCTYPE svg PUBLIC "-//W3C//DTD SVG 20010904//EN"
 "http://www.w3.org/TR/2001/REC-SVG-20010904/DTD/svg10.dtd">
<svg version="1.0" xmlns="http://www.w3.org/2000/svg"
 width="2480.000000pt" height="2480.000000pt" viewBox="0 0 2480.000000 2480.000000"
 preserveAspectRatio="xMidYMid meet">

<g transform="translate(0.000000,2480.000000) scale(0.100000,-0.100000)"
fill="#000000" stroke="none">
<path d="M14105 24249 c-1239 -81 -2384 -395 -3460 -948 -2532 -1303 -4266
-3740 -4669 -6561 -92 -643 -110 -1357 -51 -2012 25 -273 87 -726 104 -756 5
-10 63 59 181 215 96 125 246 323 334 438 160 210 718 944 1084 1425 106 140
197 259 201 263 4 4 126 -82 271 -193 l264 -200 143 0 143 0 0 115 0 115 -241
0 -241 0 6 808 c3 444 9 898 12 1010 l6 202 -202 0 -203 0 8 1043 c4 573 10
1045 14 1049 5 5 1628 -6 1700 -12 2 0 0 -414 -4 -920 l-7 -920 353 -1 c511 0
2909 -25 2912 -30 2 -2 -9 -1182 -23 -2622 -14 -1439 -24 -2617 -23 -2617 1 0
91 51 200 114 l198 115 13 -27 c18 -38 300 -697 298 -697 0 -1 -140 3 -309 8
-174 5 -312 6 -317 1 -4 -5 -72 -135 -150 -289 -79 -154 -150 -288 -159 -299
-29 -33 -71 -49 -121 -44 -55 6 -93 30 -115 75 -30 61 -21 87 105 335 l120
235 -228 7 c-125 4 -324 11 -442 16 -118 6 -264 11 -324 12 l-109 3 -185 -245
c-102 -135 -550 -729 -996 -1320 -446 -591 -829 -1099 -851 -1127 -22 -29
-182 -241 -355 -471 -173 -229 -634 -840 -1024 -1357 -390 -517 -800 -1061
-912 -1210 -771 -1023 -936 -1240 -945 -1243 -5 -2 -37 6 -71 17 -326 106
-691 90 -1030 -47 -175 -70 -337 -180 -483 -327 -78 -79 -205 -241 -217 -277
-3 -7 -65 32 -149 94 -79 58 -693 511 -1364 1007 l-1220 901 -18 -23 c-11 -12
-95 -125 -187 -251 l-169 -230 122 -90 c67 -50 720 -532 1451 -1071 l1328
-980 -6 -65 c-3 -36 -1 -118 4 -184 50 -609 453 -1119 1030 -1304 173 -55 255
-67 465 -66 156 0 208 4 288 22 267 59 502 176 694 345 l72 64 107 17 c489 80
892 375 1108 811 98 199 144 381 153 610 10 262 -37 479 -157 720 -135 271
-315 465 -574 619 l-104 62 988 1310 c544 720 1071 1417 1170 1549 100 132
256 338 348 459 92 120 194 255 227 301 33 45 122 163 197 262 76 99 152 200
170 225 63 86 941 1248 1023 1353 68 87 113 146 239 313 l138 182 74 0 c65 0
74 -2 74 -18 0 -18 29 -19 598 -32 328 -7 638 -15 687 -19 l90 -6 -122 -70
-122 -70 157 -6 c86 -4 276 -7 421 -8 206 -1 262 -4 258 -13 -3 -7 -61 -139
-130 -293 -272 -613 -621 -1404 -652 -1480 -18 -44 -128 -296 -245 -560 -481
-1086 -750 -1698 -750 -1702 0 -3 -54 -127 -120 -277 -96 -217 -120 -281 -120
-317 0 -25 56 -941 125 -2037 69 -1096 125 -2001 125 -2011 0 -17 8 -20 56
-23 l56 -3 -189 -72 c-103 -40 -258 -100 -343 -133 -85 -33 -195 -69 -243 -80
-130 -29 -215 -77 -317 -180 -77 -77 -192 -242 -178 -255 6 -6 461 -13 1293
-20 385 -3 856 -8 1048 -11 l347 -6 0 270 c0 148 3 317 6 375 l7 106 31 3 31
3 77 1955 c42 1075 77 1980 77 2011 1 55 2 57 94 172 50 63 168 211 261 329
93 117 175 220 184 228 13 13 14 -46 8 -507 l-7 -522 38 -7 c48 -9 685 3 868
16 770 57 1502 202 2208 437 l197 66 1 296 c1 163 4 366 8 451 l6 155 669
-990 c368 -545 672 -993 675 -997 4 -4 1050 276 2325 622 1274 347 2321 630
2326 630 12 0 341 -384 359 -418 65 -125 206 -237 371 -294 57 -19 220 -51
227 -44 4 4 -883 2525 -890 2533 -2 1 -89 -26 -193 -62 -104 -36 -192 -65
-195 -65 -3 0 -10 17 -15 38 l-9 39 -1715 -368 c-943 -203 -1721 -366 -1727
-364 -31 11 -3 41 135 147 540 414 1107 975 1524 1509 l75 97 6 623 c4 343 7
752 7 909 l0 285 -44 -69 -43 -69 -746 -407 -745 -407 -324 210 c-177 115
-443 288 -590 383 l-268 173 0 -227 c0 -132 -4 -221 -9 -212 -5 8 -50 139
-101 290 -50 151 -97 280 -103 287 -7 7 -678 445 -1492 973 -814 529 -1480
967 -1479 974 1 6 451 705 1002 1553 l1001 1542 -19 108 c-41 226 -110 639
-110 659 0 46 14 46 300 -7 151 -27 278 -48 284 -46 6 3 92 129 191 281 120
185 184 275 193 271 12 -4 196 -123 867 -560 77 -50 183 -118 235 -152 187
-121 497 -323 615 -400 337 -219 656 -426 792 -514 l152 -98 218 272 c120 149
291 363 381 475 l163 203 27 -17 c15 -10 62 -40 104 -67 l77 -49 185 -5 186
-6 0 -116 1 -116 46 -29 c25 -16 76 -55 112 -86 58 -49 299 -237 493 -382 35
-26 86 -65 113 -87 62 -50 63 -47 40 122 -76 566 -205 1111 -397 1675 -571
1682 -1671 3177 -3113 4232 -1360 995 -2939 1562 -4650 1670 -182 11 -870 11
-1050 -1z m494 -2631 c27 -45 87 -101 141 -133 25 -15 36 -24 25 -20 -101 38
-205 44 -316 21 -69 -15 -219 -73 -219 -84 0 -4 7 -15 15 -26 16 -21 21 -20
110 18 136 56 316 70 425 32 53 -18 64 -12 30 17 -14 11 -18 18 -9 14 10 -3
44 -11 77 -17 l60 -12 5 -67 c4 -36 12 -166 18 -288 7 -123 16 -223 21 -223
12 0 66 77 99 142 42 82 78 217 85 317 9 122 42 180 113 201 70 20 185 -43
217 -119 39 -90 36 -241 -5 -351 -25 -66 -105 -173 -161 -215 -29 -22 -44 -43
-55 -79 -30 -98 -16 -189 41 -263 l25 -33 -47 -68 c-70 -99 -206 -229 -313
-300 -144 -94 -297 -148 -453 -159 -84 -6 -91 -5 -150 25 -81 40 -137 88 -193
167 -48 66 -104 180 -126 253 -11 39 -16 44 -57 54 -48 12 -150 84 -182 127
l-20 29 38 5 c20 3 66 9 100 13 l64 7 -6 41 c-20 151 -14 136 -57 136 -28 0
-39 4 -39 15 0 10 -10 15 -30 15 -25 0 -30 4 -36 36 -11 60 3 114 56 222 67
133 81 210 57 315 -9 39 -18 97 -19 127 l-3 55 295 41 c373 53 353 52 379 12z
m3946 -733 c759 -8 1440 -15 1514 -15 l134 0 -7 -642 c-10 -1028 -18 -1488
-26 -1488 -4 0 -41 30 -81 67 -91 82 -202 155 -277 184 -34 12 -566 114 -1312
250 -690 126 -1285 235 -1322 244 -116 26 -263 20 -406 -16 -67 -17 -124 -30
-126 -28 -3 3 10 1446 13 1457 2 5 562 1 1896 -13z m-3096 -524 l66 -59 94
-286 c57 -174 91 -290 85 -295 -5 -5 -111 -62 -236 -126 l-227 -116 -79 -132
c-43 -73 -222 -376 -397 -674 -176 -298 -320 -541 -322 -539 -2 1 -82 228
-178 504 l-176 502 16 123 c8 67 18 153 22 192 l8 70 125 11 c411 39 790 223
966 470 79 110 144 281 144 377 0 21 5 37 11 37 6 0 41 -27 78 -59z m7634
-2998 c-13 -2 -35 -2 -50 0 -16 2 -5 4 22 4 28 0 40 -2 28 -4z m14 -645 c-3
-7 -5 -2 -5 12 0 14 2 19 5 13 2 -7 2 -19 0 -25z m-16286 -11469 c119 -64 227
-205 264 -345 18 -68 20 -201 4 -275 l-11 -52 -28 110 c-51 196 -135 375 -245
522 -30 39 -51 71 -48 71 3 0 32 -14 64 -31z m-1099 -370 c97 -20 196 -75 274
-153 115 -115 168 -241 168 -406 2 -439 -481 -711 -859 -485 -165 99 -262 261
-272 455 -13 237 104 439 315 544 102 52 254 70 374 45z"/>
<path d="M14385 21346 c-34 -34 -34 -94 -1 -133 52 -61 160 -19 160 62 0 56
-32 89 -87 93 -39 3 -51 -1 -72 -22z"/>
<path d="M14067 20810 c-27 -5 -51 -11 -54 -14 -3 -3 6 -23 22 -45 39 -57 120
-109 202 -131 77 -20 245 -36 262 -25 18 10 -27 81 -82 131 -26 23 -72 52
-102 63 -62 23 -180 33 -248 21z"/>
<path d="M7970 19865 l0 -115 360 0 360 0 0 115 0 115 -360 0 -360 0 0 -115z"/>
<path d="M7965 19458 c-3 -18 -5 -69 -3 -113 l3 -80 357 -3 357 -2 3 111 c2
61 1 113 -1 115 -2 2 -163 4 -357 4 l-353 0 -6 -32z"/>
<path d="M8350 18815 l0 -115 165 0 165 0 0 115 0 115 -165 0 -165 0 0 -115z"/>
<path d="M8348 18266 l-3 -116 116 0 c64 0 137 -3 163 -6 l46 -7 0 117 0 116
-38 0 c-22 0 -93 3 -160 7 l-121 6 -3 -117z"/>
<path d="M8340 17705 l0 -115 165 0 165 0 0 115 0 115 -165 0 -165 0 0 -115z"/>
<path d="M11648 17705 c-5 -5 -8 -108 -8 -230 l0 -222 77 -7 c42 -3 242 -6
445 -6 l368 0 0 230 0 230 -138 0 c-76 0 -273 3 -438 6 -164 4 -302 3 -306 -1z"/>
<path d="M8336 17155 c-4 -58 -4 -110 -1 -115 4 -6 75 -10 166 -10 l159 0 0
115 0 115 -159 0 -158 0 -7 -105z"/>
<path d="M11638 16924 c-5 -4 -8 -109 -8 -234 l0 -227 233 -6 c127 -4 327 -7
443 -7 l211 0 6 158 c4 86 7 192 7 235 l0 77 -368 0 c-203 0 -402 3 -443 6
-41 3 -77 3 -81 -2z"/>
<path d="M8330 16595 l0 -115 165 0 165 0 0 109 0 108 -46 7 c-26 3 -100 6
-165 6 l-119 0 0 -115z"/>
<path d="M23291 16292 c-8 -15 28 -49 249 -235 143 -119 263 -217 269 -217 5
0 12 8 15 17 5 12 -5 29 -31 55 -64 64 -467 398 -480 398 -7 0 -17 -8 -22 -18z"/>
<path d="M23086 16041 c-16 -18 -9 -25 171 -177 103 -87 190 -161 193 -164 3
-3 40 -35 83 -70 43 -35 85 -77 93 -92 12 -23 20 -28 37 -22 31 9 31 9 12 47
-11 23 -102 106 -282 258 -146 123 -272 227 -278 231 -7 4 -20 -1 -29 -11z"/>
<path d="M11624 15841 c-2 -2 -4 -106 -4 -231 l0 -227 242 -6 c133 -4 333 -7
445 -7 l203 0 1 103 c0 56 2 159 5 230 4 99 2 128 -8 132 -17 5 -878 11 -884
6z"/>
<path d="M23230 14648 c-72 -117 -166 -271 -208 -343 -43 -71 -119 -195 -169
-275 -49 -80 -155 -251 -235 -380 l-146 -235 -6 -905 -6 -905 39 78 c22 43 45
85 52 93 6 8 9 14 5 14 -3 0 7 27 24 60 17 33 30 62 29 65 0 3 11 26 26 50 14
25 24 45 21 45 -2 0 16 46 40 101 24 56 68 165 98 243 74 190 78 201 76 201
-1 0 7 23 19 52 27 70 81 230 81 242 0 5 5 22 12 38 6 15 12 33 13 39 6 25 57
191 66 214 23 55 112 425 158 657 55 272 101 580 126 828 8 88 17 177 19 198
2 20 3 37 1 37 -2 0 -63 -96 -135 -212z m-163 -1205 c-2 -37 -3 -9 -3 62 0 72
1 102 3 68 2 -34 2 -93 0 -130z"/>
<path d="M11614 14761 c-2 -2 -4 -106 -4 -231 l0 -227 233 -6 c127 -4 327 -7
443 -7 l211 0 6 227 c3 126 3 231 -1 235 -7 7 -881 16 -888 9z"/>
<path d="M11602 13571 l3 -115 115 -89 c63 -49 124 -95 134 -102 15 -11 17
-17 8 -28 -19 -22 46 -27 354 -27 l274 0 1 173 c0 94 3 198 5 230 3 41 1 59
-8 62 -7 2 -210 5 -451 7 l-438 3 3 -114z"/>
<path d="M1761 8729 c-49 -66 -52 -72 -34 -84 10 -7 308 -234 663 -504 355
-270 647 -491 650 -491 3 1 29 32 59 71 45 59 51 73 40 83 -34 31 -1309 996
-1317 996 -4 0 -31 -32 -61 -71z"/>
<path d="M2326 7925 l-56 -74 290 -220 c160 -122 292 -221 294 -221 3 0 30 32
60 71 l56 71 -68 52 c-37 28 -169 129 -293 224 l-227 172 -56 -75z"/>
<path d="M2131 7669 c-29 -39 -51 -72 -49 -73 2 -1 87 -66 189 -144 103 -78
189 -138 193 -135 3 4 6 1 6 -5 0 -6 44 -44 98 -85 l97 -74 53 68 c28 37 52
72 52 77 0 9 -565 442 -577 442 -5 0 -32 -32 -62 -71z"/>
<path d="M1936 7418 l-54 -71 67 -51 c182 -141 520 -396 524 -396 3 0 30 33
61 74 l56 75 -83 63 c-232 180 -497 378 -506 378 -6 0 -35 -32 -65 -72z"/>
<path d="M9700 965 l0 -265 30 0 c20 0 30 5 30 15 0 12 6 11 33 -5 46 -28 124
-27 168 3 127 85 67 277 -87 277 -42 0 -59 -5 -83 -26 l-31 -26 0 146 0 146
-30 0 -30 0 0 -265z m231 -54 c64 -65 20 -171 -71 -171 -58 0 -100 42 -100
100 0 91 106 135 171 71z"/>
<path d="M11130 965 l0 -265 30 0 30 0 0 265 0 265 -30 0 -30 0 0 -265z"/>
<path d="M11280 965 l0 -265 30 0 30 0 0 265 0 265 -30 0 -30 0 0 -265z"/>
<path d="M11722 1223 c-27 -11 -42 -62 -42 -148 0 -67 -3 -87 -15 -91 -8 -4
-15 -17 -15 -30 0 -15 6 -24 15 -24 12 0 15 -19 15 -115 l0 -115 30 0 30 0 0
115 0 115 45 0 c41 0 45 2 45 24 0 22 -5 25 -42 28 l-43 3 -3 69 c-2 39 2 82
9 99 11 26 16 28 46 24 31 -5 33 -4 33 24 0 28 -1 29 -47 28 -27 0 -54 -3 -61
-6z"/>
<path d="M13270 1090 c0 -77 -2 -140 -5 -140 -2 0 -19 9 -37 20 -40 24 -107
26 -154 4 -48 -23 -74 -70 -74 -134 0 -64 26 -111 74 -134 47 -22 114 -20 154
4 39 24 42 24 42 5 0 -10 10 -15 30 -15 l30 0 0 265 0 265 -30 0 -30 0 0 -140z
m-51 -164 c28 -15 51 -53 51 -87 0 -117 -184 -137 -206 -22 -17 90 71 152 155
109z"/>
<path d="M14660 965 l0 -265 30 0 30 0 0 265 0 265 -30 0 -30 0 0 -265z"/>
<path d="M15830 1090 c0 -77 -2 -140 -5 -140 -2 0 -19 9 -37 20 -40 24 -107
26 -154 4 -48 -23 -74 -70 -74 -134 0 -64 26 -111 74 -134 47 -22 114 -20 154
4 39 24 42 24 42 5 0 -10 10 -15 30 -15 l30 0 0 265 0 265 -30 0 -30 0 0 -140z
m-51 -164 c28 -15 51 -53 51 -86 0 -56 -49 -100 -113 -100 -74 0 -117 76 -83
146 24 52 88 69 145 40z"/>
<path d="M10787 1088 c-25 -45 -81 -152 -125 -235 l-80 -153 37 0 c35 0 38 3
64 55 l27 55 122 0 123 0 29 -55 c26 -50 31 -55 62 -55 19 0 34 3 34 6 0 8
-230 446 -240 457 -4 5 -28 -29 -53 -75z m93 -128 c22 -44 40 -82 40 -85 0 -3
-38 -5 -85 -5 -47 0 -85 2 -85 5 0 10 80 165 85 165 3 0 23 -36 45 -80z"/>
<path d="M7490 931 l0 -231 93 0 c147 0 241 39 284 118 48 88 35 193 -32 258
-55 54 -117 74 -242 81 l-103 6 0 -232z m247 141 c72 -37 103 -99 89 -177 -9
-44 -58 -101 -105 -121 -20 -8 -64 -18 -98 -21 l-63 -6 0 178 0 178 68 -5 c40
-3 84 -13 109 -26z"/>
<path d="M8574 1136 c-13 -33 0 -51 36 -51 32 0 35 2 35 30 0 27 -4 30 -33 33
-22 2 -34 -2 -38 -12z"/>
<path d="M13951 905 c-24 -52 -48 -92 -53 -89 -5 3 -26 41 -48 85 -39 76 -42
79 -75 79 -19 0 -35 -2 -35 -5 0 -5 121 -223 148 -264 15 -25 15 -24 62 69
l48 95 46 -94 c54 -107 42 -111 126 39 29 52 62 110 72 128 l20 32 -39 0 c-38
0 -40 -2 -68 -60 -16 -33 -37 -73 -47 -87 l-17 -27 -46 97 c-25 53 -46 97 -48
97 -1 -1 -22 -43 -46 -95z"/>
<path d="M8001 972 c-95 -51 -94 -204 1 -262 59 -36 163 -23 221 28 23 20 22
30 -7 44 -21 9 -29 7 -56 -16 -34 -28 -85 -35 -121 -16 -16 9 -49 58 -49 75 0
3 56 5 125 5 l125 0 0 30 c0 43 -25 87 -63 110 -42 26 -130 27 -176 2z m146
-47 c11 -8 23 -24 26 -35 5 -19 1 -20 -84 -20 -98 0 -112 11 -63 49 31 25 90
28 121 6z"/>
<path d="M8319 961 c-50 -50 -36 -87 51 -131 68 -34 75 -42 60 -70 -13 -24
-62 -27 -81 -4 -11 13 -53 13 -67 0 -8 -9 14 -39 39 -51 79 -41 179 0 179 74
0 45 -15 61 -85 91 -55 24 -69 38 -53 57 13 16 40 17 56 1 9 -9 18 -8 39 1
l28 13 -28 24 c-41 35 -99 33 -138 -5z"/>
<path d="M8804 980 c-11 -4 -34 -24 -52 -44 -28 -32 -32 -44 -32 -93 0 -67 25
-114 74 -137 47 -22 114 -20 154 4 18 11 35 20 39 20 10 0 -7 -93 -21 -116
-32 -48 -148 -34 -162 20 -5 22 -12 26 -41 26 -33 0 -35 -1 -28 -27 15 -63 73
-97 163 -96 73 1 106 19 134 74 15 28 18 62 18 202 l0 167 -30 0 c-20 0 -30
-5 -30 -15 0 -19 -3 -19 -42 5 -34 21 -105 26 -144 10z m135 -54 c28 -15 51
-53 51 -87 0 -28 -27 -77 -49 -89 -37 -19 -100 -12 -126 14 -88 88 12 219 124
162z"/>
<path d="M9225 973 c-20 -11 -30 -12 -33 -4 -2 6 -17 11 -33 11 l-29 0 0 -140
0 -140 30 0 30 0 0 73 c0 132 23 171 98 165 50 -4 62 -31 62 -145 l0 -93 31 0
31 0 -4 121 c-3 118 -4 121 -31 145 -34 29 -105 32 -152 7z"/>
<path d="M11956 969 c-21 -17 -26 -18 -26 -5 0 12 -10 16 -35 16 l-35 0 0
-140 0 -140 35 0 35 0 0 95 c0 89 2 98 26 121 20 21 31 25 58 20 28 -5 34 -3
44 18 6 13 8 27 5 30 -14 14 -82 5 -107 -15z"/>
<path d="M12152 970 c-45 -28 -72 -76 -72 -130 0 -54 27 -102 72 -131 50 -31
152 -24 202 14 42 33 45 44 12 59 -21 9 -29 7 -56 -16 -57 -47 -136 -30 -158
34 l-11 30 125 0 124 0 0 30 c0 43 -25 87 -63 110 -44 27 -131 27 -175 0z
m153 -55 c14 -13 25 -29 25 -35 0 -6 -34 -10 -90 -10 -56 0 -90 4 -90 10 0 6
11 22 25 35 18 19 35 25 65 25 30 0 47 -6 65 -25z"/>
<path d="M12489 967 c-127 -85 -67 -277 87 -277 61 0 100 13 132 42 27 26 28
34 2 48 -16 9 -27 6 -54 -15 -44 -34 -94 -33 -135 1 -17 14 -31 34 -31 45 0
18 9 19 124 19 l123 0 -7 38 c-15 84 -62 122 -151 122 -42 0 -65 -6 -90 -23z
m156 -52 c14 -13 25 -29 25 -35 0 -6 -34 -10 -90 -10 -49 0 -90 4 -90 9 0 4
11 20 25 35 33 36 95 37 130 1z"/>
<path d="M13480 979 c-87 -35 -126 -139 -77 -209 37 -55 70 -74 141 -78 54 -4
71 0 106 19 109 62 107 205 -4 258 -46 23 -123 27 -166 10z m130 -54 c63 -33
75 -114 23 -155 -36 -28 -69 -35 -113 -21 -69 21 -94 98 -48 148 41 44 88 54
138 28z"/>
<path d="M14388 974 c-16 -8 -28 -10 -28 -4 0 5 -16 10 -35 10 l-35 0 0 -140
0 -140 35 0 35 0 0 100 c0 88 3 103 21 121 15 15 30 19 62 17 56 -4 67 -27 67
-145 l0 -93 30 0 30 0 0 116 c0 114 0 116 -29 145 -25 24 -37 29 -78 29 -26
-1 -60 -8 -75 -16z"/>
<path d="M14868 970 c-101 -54 -113 -172 -25 -244 75 -60 212 -43 266 33 28
38 28 114 1 158 -41 68 -162 95 -242 53z m142 -45 c65 -34 78 -95 31 -147 -26
-29 -35 -33 -81 -33 -46 0 -55 4 -81 33 -35 39 -38 78 -8 116 36 46 88 58 139
31z"/>
<path d="M15254 980 c-11 -4 -34 -24 -52 -44 -28 -32 -32 -44 -32 -93 0 -103
62 -159 166 -151 31 3 62 12 72 21 23 21 32 21 32 2 0 -10 10 -15 30 -15 l30
0 0 140 0 140 -30 0 c-20 0 -30 -5 -30 -15 0 -19 -3 -19 -42 5 -34 21 -105 26
-144 10z m135 -54 c48 -25 63 -83 36 -136 -19 -37 -43 -50 -90 -50 -47 0 -71
13 -90 50 -49 95 47 186 144 136z"/>
<path d="M16233 969 c-54 -26 -83 -73 -83 -130 0 -89 70 -149 174 -149 75 0
86 6 86 46 l0 35 -32 -17 c-73 -38 -163 9 -163 85 0 77 76 119 156 88 l39 -15
0 33 c0 39 -11 45 -83 45 -33 0 -68 -8 -94 -21z"/>
<path d="M16545 976 c-69 -30 -108 -112 -86 -179 23 -68 86 -107 172 -107 98
0 169 62 169 148 0 59 -22 96 -73 127 -50 29 -131 34 -182 11z m152 -61 c55
-37 52 -113 -7 -153 -100 -68 -229 59 -142 140 15 14 34 28 42 31 23 10 79 0
107 -18z"/>
<path d="M16950 973 c-17 -12 -25 -13 -28 -5 -2 7 -17 12 -33 12 l-29 0 0
-140 0 -140 29 0 29 0 4 99 c3 110 18 141 68 141 49 0 60 -25 60 -138 l0 -102
34 0 34 0 4 105 c3 114 14 134 70 135 45 0 58 -31 58 -142 l0 -98 30 0 30 0 0
116 c0 114 0 116 -29 145 -36 35 -99 40 -145 10 -28 -19 -29 -19 -60 0 -38 23
-94 24 -126 2z"/>
<path d="M8580 840 l0 -140 30 0 30 0 0 140 0 140 -30 0 -30 0 0 -140z"/>
<path d="M10046 968 c4 -7 34 -55 66 -106 32 -51 61 -99 64 -107 3 -8 -22 -60
-55 -115 -34 -56 -61 -103 -61 -105 0 -3 15 -5 34 -5 34 0 35 2 165 221 72
121 131 223 131 225 0 2 -15 4 -34 4 -33 0 -37 -4 -83 -85 -26 -47 -50 -85
-53 -85 -3 0 -27 39 -55 85 -49 83 -51 85 -88 85 -28 0 -36 -3 -31 -12z"/>
<path d="M11430 895 c0 -24 2 -25 75 -25 73 0 75 1 75 25 0 24 -2 25 -75 25
-73 0 -75 -1 -75 -25z"/>
<path d="M12790 895 c0 -24 2 -25 75 -25 73 0 75 1 75 25 0 24 -2 25 -75 25
-73 0 -75 -1 -75 -25z"/>
<path d="M6010 885 c0 -13 54 -15 458 -13 298 2 456 6 455 13 -2 6 -165 11
-458 13 -402 2 -455 0 -455 -13z"/>
<path d="M17880 885 c0 -13 54 -15 458 -13 298 2 456 6 455 13 -2 6 -165 11
-458 13 -402 2 -455 0 -455 -13z"/>
<path d="M16000 745 c-20 -24 -3 -55 30 -55 20 0 31 6 35 20 8 25 -10 50 -35
50 -10 0 -23 -7 -30 -15z"/>
</g>
</svg>
